{"title":"The Other Guys.2010.SCR.XViD-MAGNET","uid":5793956,"size":1136083661,"categoryP":"video","categoryS":"movies","magnet":"?xt=urn:btih:6adbe2815eaf25ef11b5cf946c5e5007135ddd97&amp;dn=The+Other+Guys.2010.SCR.XViD-MAGNET&amp;tr=udp%3A%2F%2Ftracker.openbittorrent.com%3A80&amp;tr=udp%3A%2F%2Fopen.demonii.com%3A1337&amp;tr=udp%3A%2F%2Ftracker.coppersurfer.tk%3A6969&amp;tr=udp%3A%2F%2Fexodus.desync.com%3A6969","seeders":0,"leechers":0,"uploader":"hiest","files":-1,"time":1282968710,"description":" \nTerry Hoitz's past mistakes in the line of duty and Allen Gamble's reluctance to take risks have landed them the roles of the &quot;Other Guys&quot;, disgraced New York City police detectives relegated to filling out paperwork for cocky hero cops Danson and Highsmith. The mismatched duo must look past their differences when they take on a high-profile investigation of shady capitalist David Ershon and attempt to fill the shoes of the notoriously reckless officers they idolize\n\n\n  &lt;a href=&quot;\nhttp://www.imdb.com/title/tt1386588/&quot; rel=&quot;nofollow&quot; target=&quot;_NEW&quot;&gt;\nhttp://www.imdb.com/title/tt1386588/&lt;/a&gt;\nGenre:Action | Comedy\nUser Rating:7.1/10\n\n\n \nVideo\nFormat : xvid\nCodec ID : xvid\nDuration : 1h 47mn\nBit rate : 1 320 Kbps\nWidth : 672 pixels\nHeight : 288 pixels\nDisplay aspect ratio : 2.35:1\nFrame rate : 23.976 fps\nBits/(Pixel*Frame) : 0.285\nStream size : 1 013 MiB (94%)\n\nAudio\nID : 1\nFormat : MPEG Audio\nFormat version : Version 1\nFormat profile : Layer 3\nMode : Joint stereo\nFormat_Settings_ModeExtension : MS Stereo\nCodec ID : 55\nCodec ID/Hint : MP3\nDuration : 1h 47mn\nBit rate mode : Constant\nBit rate : 64.0 Kbps\nChannel(s) : 2 channels\nSampling rate : 48.0 KHz\nStream size : 49.1 MiB (5%)\nAlignment : Aligned on interleaves\nInterleave, duration : 24 ms (0.58 video frame)\nInterleave, preload duration : 24 ms\n\n\n\n\n\n\n &lt;a href=&quot;\nhttp://thepiratebay.se/user/hiest&quot; rel=&quot;nofollow&quot; target=&quot;_NEW&quot;&gt;\nhttp://thepiratebay.se/user/hiest&lt;/a&gt;\n\n\n\n\n\n\n\n\n\nScreenshots:\n &lt;a href=&quot;\nhttp://postimg.com/image/21000/20545.jpg&quot; rel=&quot;nofollow&quot; target=&quot;_NEW&quot;&gt;\nhttp://postimg.com/image/21000/20545.jpg&lt;/a&gt;","torrent":{"xt":"urn:btih:6adbe2815eaf25ef11b5cf946c5e5007135ddd97","amp;dn":"The+Other+Guys.2010.SCR.XViD-MAGNET","amp;tr":["udp%3A%2F%2Ftracker.openbittorrent.com%3A80","udp%3A%2F%2Fopen.demonii.com%3A1337","udp%3A%2F%2Ftracker.coppersurfer.tk%3A6969","udp%3A%2F%2Fexodus.desync.com%3A6969"],"infoHash":"6adbe2815eaf25ef11b5cf946c5e5007135ddd97","infoHashBuffer":{"type":"Buffer","data":[106,219,226,129,94,175,37,239,17,181,207,148,108,94,80,7,19,93,221,151]},"announce":[],"urlList":[]}}